<svg width="76" height="76" viewBox="0 0 76 76" fill="none" xmlns="http://www.w3.org/2000/svg">
<circle cx="38" cy="38" r="38" fill="#E4E4E4"/>
<path d="M28.8612 51.1845H24.1116C23.6801 51.1845 23.3304 51.5343 23.3304 51.9658C23.3304 52.3972 23.6801 52.747 24.1116 52.747H28.8611C29.2926 52.747 29.6423 52.3972 29.6423 51.9658C29.6423 51.5343 29.2926 51.1845 28.8612 51.1845Z" fill="black"/>
<path d="M33.1001 51.6672C32.9723 51.3551 32.6447 51.1576 32.3089 51.1879C31.9859 51.2172 31.7087 51.4508 31.6243 51.7636C31.5406 52.0743 31.6634 52.4134 31.9242 52.6009C32.1882 52.7907 32.556 52.7932 32.8232 52.6083C33.1218 52.4016 33.2399 52.0027 33.1001 51.6672Z" fill="black"/>
<path d="M32.3929 47.271H22.7519C22.3204 47.271 21.9706 47.6208 21.9706 48.0522C21.9706 48.4837 22.3204 48.8335 22.7519 48.8335H32.3929C32.8244 48.8335 33.1742 48.4837 33.1742 48.0522C33.1742 47.6208 32.8244 47.271 32.3929 47.271Z" fill="black"/>
<path d="M29.3893 44.1387C29.3893 43.7072 29.0395 43.3574 28.608 43.3574H21.7812C21.3498 43.3574 21 43.7072 21 44.1387C21 44.5702 21.3498 44.9199 21.7812 44.9199H28.608C29.0395 44.9199 29.3893 44.5702 29.3893 44.1387Z" fill="black"/>
<path d="M60.0659 47.1743C59.9338 42.7452 56.2897 39.1829 51.8292 39.1829H47.8652L45.6102 25.6411C45.492 24.8268 45.0592 24.1143 44.3905 23.6339C43.7192 23.1517 42.902 22.9694 42.0895 23.1205C40.4331 23.4285 39.9773 23.4945 39.853 23.5063C39.6229 23.5284 39.4143 23.6512 39.2834 23.8418C39.1526 24.0323 39.1128 24.2711 39.1749 24.4938L39.3691 25.1902C37.95 25.0203 36.6506 24.2478 35.8256 23.0389L35.3483 22.3405C35.2227 22.1567 35.0247 22.0352 34.804 22.0066C34.5834 21.9777 34.3609 22.0447 34.1924 22.1902L30.4566 25.4188C30.038 25.7331 29.6335 26.1427 29.254 26.6366C29.2538 26.6369 29.2536 26.6372 29.2534 26.6374C28.1936 28.0136 27.2767 30.0756 26.7495 32.2432C26.1712 32.297 25.6121 32.5651 25.2042 33.0377L24.2996 34.0859C23.8929 34.5572 23.6945 35.1586 23.7411 35.7794C23.7877 36.4002 24.0735 36.9652 24.546 37.3706L39.9343 50.5731C40.1952 50.7925 40.4671 50.9965 40.7486 51.1845H35.9248C35.4933 51.1845 35.1435 51.5343 35.1435 51.9658C35.1435 52.3973 35.4933 52.747 35.9248 52.747H58.6743C59.9567 52.747 61.0001 51.7037 61.0001 50.4213V49.0367C61.0001 48.2757 60.6327 47.5988 60.0659 47.1743ZM44.9162 30.9855H42.6063L42.0313 28.9227H44.5727L44.9162 30.9855ZM45.1763 32.548L45.5369 34.7133H43.6452L43.0417 32.548H45.1763ZM45.7971 36.2758L46.3499 39.5958C46.1092 39.6668 45.8505 39.6636 45.598 39.582C45.1776 39.4461 44.8706 39.1234 44.7538 38.6906L44.0807 36.2758H45.7971ZM42.3752 24.6566C42.765 24.5841 43.1569 24.6716 43.4788 24.9029C43.8009 25.1342 44.009 25.4779 44.0647 25.8706C44.0656 25.8768 44.0665 25.883 44.0676 25.8891L44.3125 27.3602H41.5959L40.916 24.9207C41.2557 24.8618 41.7245 24.7777 42.3752 24.6566ZM31.457 26.6192L34.552 23.9445C35.7567 25.6929 37.7208 26.7388 39.814 26.7866L39.9738 27.3601H39.9275C39.496 27.3601 39.1463 27.7098 39.1463 28.1413C39.1463 28.5728 39.496 28.9226 39.9275 28.9226H40.4093L40.9842 30.9854H40.4765C40.045 30.9854 39.6952 31.3352 39.6952 31.7666C39.6952 32.1981 40.045 32.5479 40.4765 32.5479H41.4198L42.0233 34.7132H41.1015C40.67 34.7132 40.3202 35.063 40.3202 35.4945C40.3202 35.9259 40.67 36.2757 41.1015 36.2757H42.4588L43.247 39.1036C43.4986 40.0367 44.1978 40.7713 45.1174 41.0686C45.2467 41.1104 45.3774 41.1426 45.5088 41.1654L44.7476 42.2641C44.5019 42.6188 44.5903 43.1056 44.9449 43.3513C45.0806 43.4452 45.2356 43.4904 45.3891 43.4904C45.6367 43.4904 45.8802 43.373 46.032 43.154L47.7006 40.7453H51.8292C55.2708 40.7453 58.1126 43.3623 58.4693 46.7109H45.896C45.1428 46.7109 44.4098 46.4454 43.8312 45.9632L32.7242 36.4341C34.0424 35.3813 34.8282 33.7481 34.8282 31.9618C34.8282 30.5916 34.3338 29.2681 33.4359 28.2348C32.8567 27.5684 32.1351 27.0506 31.3335 26.7154C31.3594 26.695 31.3853 26.6752 31.4113 26.6559C31.427 26.6443 31.4423 26.632 31.457 26.6192ZM30.2106 27.9795C31.981 28.4556 33.2657 30.0925 33.2657 31.9618C33.2657 33.3722 32.6025 34.6467 31.5081 35.3907L28.4793 32.7922C28.4099 32.7327 28.3379 32.678 28.2638 32.628C28.691 30.8595 29.3935 29.1832 30.2106 27.9795ZM59.4376 50.4213C59.4376 50.8421 59.0952 51.1845 58.6743 51.1845H45.896C44.0856 51.1845 42.3256 50.5427 40.946 49.3823L25.5634 36.1848C25.4083 36.0517 25.3145 35.8663 25.2992 35.6626C25.2839 35.4588 25.3491 35.2614 25.4825 35.1068L26.3871 34.0586C26.5377 33.8841 26.751 33.7945 26.9656 33.7945C27.1416 33.7945 27.3184 33.8548 27.462 33.978L42.8178 47.1526C42.8203 47.1548 42.8229 47.157 42.8255 47.1591C43.6852 47.8777 44.7756 48.2734 45.896 48.2734H58.6743C59.0952 48.2734 59.4376 48.6159 59.4376 49.0367V50.4213Z" fill="black"/>
</svg>
