<svg width="76" height="76" viewBox="0 0 76 76" fill="none" xmlns="http://www.w3.org/2000/svg">
<circle cx="38" cy="38" r="38" fill="#E4E4E4"/>
<path d="M43.1692 18C43.1692 18 40.9788 18.7692 37.5385 18.7692C34.0981 18.7692 31.9077 18 31.9077 18C31.5616 18 31.218 18.0585 30.8913 18.1731L16 23.3846L17.599 31.8462L22.299 32.3769C22.8746 32.4421 23.4046 32.7213 23.7839 33.1591C24.1631 33.597 24.3638 34.1614 24.3462 34.7404L23.6923 58H51.3846L50.7308 34.7404C50.7131 34.1614 50.9138 33.597 51.293 33.1591C51.6723 32.7213 52.2023 32.4421 52.7779 32.3769L57.4779 31.8462L59.0769 23.3846L44.1856 18.1731C43.859 18.0585 43.5153 18 43.1692 18V18Z" stroke="black" stroke-width="3" stroke-linecap="round" stroke-linejoin="round"/>
<path d="M44.9721 18.4481C44.5361 20.0867 43.5709 21.5353 42.2265 22.5687C40.8822 23.6021 39.2341 24.1624 37.5385 24.1624C35.8428 24.1624 34.1947 23.6021 32.8504 22.5687C31.506 21.5353 30.5408 20.0867 30.1048 18.4481" stroke="black" stroke-width="3" stroke-linecap="round" stroke-linejoin="round"/>
</svg>
