<svg width="76" height="76" viewBox="0 0 76 76" fill="none" xmlns="http://www.w3.org/2000/svg">
<circle cx="38" cy="38" r="38" fill="#E4E4E4"/>
<path d="M41.8929 49.2857C41.8929 52.442 40.0491 55 36.8929 55H25.1071C21.9509 55 20.1071 52.442 20.1071 49.2857" stroke="black" stroke-width="2" stroke-miterlimit="10" stroke-linecap="round"/>
<path d="M43.1429 42.1429C44.7205 42.1429 46 43.742 46 45.7143C46 47.6866 44.7205 49.2857 43.1429 49.2857H18.8571C17.2795 49.2857 16 47.6866 16 45.7143C16 43.742 17.2795 42.1429 18.8571 42.1429" stroke="black" stroke-width="2" stroke-miterlimit="10" stroke-linecap="round"/>
<path d="M43.8571 42.1429H29.1527C28.9635 42.1429 28.7821 42.2181 28.6482 42.3518L26.2527 44.7473C26.2195 44.7805 26.1801 44.8069 26.1368 44.8248C26.0934 44.8428 26.0469 44.8521 26 44.8521C25.9531 44.8521 25.9066 44.8428 25.8632 44.8248C25.8199 44.8069 25.7805 44.7805 25.7473 44.7473L23.3518 42.3518C23.2179 42.2181 23.0365 42.1429 22.8473 42.1429H18.1429C17.5745 42.1429 17.0295 41.9171 16.6276 41.5152C16.2258 41.1134 16 40.5683 16 40C16 39.4317 16.2258 38.8866 16.6276 38.4848C17.0295 38.0829 17.5745 37.8571 18.1429 37.8571H43.8571C44.4255 37.8571 44.9705 38.0829 45.3724 38.4848C45.7742 38.8866 46 39.4317 46 40C46 40.5683 45.7742 41.1134 45.3724 41.5152C44.9705 41.9171 44.4255 42.1429 43.8571 42.1429Z" stroke="black" stroke-width="2" stroke-miterlimit="10" stroke-linecap="round"/>
<path d="M18.8571 36.7857V36.7661C18.8571 31.8554 22.875 29.2857 27.7857 29.2857H34.2143C39.125 29.2857 43.1429 31.875 43.1429 36.7857V36.7661" stroke="black" stroke-width="2" stroke-miterlimit="10" stroke-linecap="round"/>
<path d="M34.6607 22.1429L35.325 27.8545" stroke="black" stroke-width="2" stroke-miterlimit="10" stroke-linecap="round"/>
<path d="M36 55H48.4384C49.1592 55 49.8534 54.7275 50.3818 54.2372C50.9101 53.7469 51.2337 53.0751 51.2875 52.3563L54.4821 22.1429" stroke="black" stroke-width="2" stroke-miterlimit="10" stroke-linecap="round"/>
<path d="M46 22.1429L47.4286 16.4286L51.625 15" stroke="black" stroke-width="2" stroke-linecap="round" stroke-linejoin="round"/>
<path d="M33.1429 22.1429H56" stroke="black" stroke-width="2" stroke-miterlimit="10" stroke-linecap="round"/>
</svg>
