<svg width="76" height="76" viewBox="0 0 76 76" fill="none" xmlns="http://www.w3.org/2000/svg">
<circle cx="38" cy="38" r="38" fill="#E4E4E4"/>
<path d="M21.5385 30.3077C21.1304 30.3077 20.7391 30.4698 20.4506 30.7583C20.1621 31.0468 20 31.4381 20 31.8462V52.6154C20 55.5231 22.4769 58 25.3846 58H51.5385C54.4461 58 56.9231 55.6433 56.9231 52.7356V31.8462C56.9231 31.4381 56.761 31.0468 56.4725 30.7583C56.184 30.4698 55.7926 30.3077 55.3846 30.3077H21.5385Z" stroke="black" stroke-width="3" stroke-linecap="round" stroke-linejoin="round"/>
<path d="M29.2308 30.3077V27.2308C29.2308 24.7826 30.2033 22.4347 31.9344 20.7036C33.6655 18.9725 36.0134 18 38.4615 18C40.9097 18 43.2576 18.9725 44.9887 20.7036C46.7198 22.4347 47.6923 24.7826 47.6923 27.2308V30.3077" stroke="black" stroke-width="3" stroke-linecap="round" stroke-linejoin="round"/>
</svg>
